<svg viewBox="0 0 800 500" preserveAspectRatio="xMidYMid slice" xmlns="http://www.w3.org/2000/svg" role="img"><defs><linearGradient id="d2asky" x1="0" y1="0" x2="0" y2="1"><stop offset="0" stop-color="#2f5a72"/><stop offset=".62" stop-color="#8fb6bd"/><stop offset="1" stop-color="#f0d3ad"/></linearGradient><linearGradient id="d2alk" x1="0" y1="0" x2="0" y2="1"><stop offset="0" stop-color="#6fc6c0"/><stop offset="1" stop-color="#28464e"/></linearGradient><radialGradient id="d2aglow"><stop offset="0" stop-color="#ffe3b8" stop-opacity=".85"/><stop offset="1" stop-color="#ffe3b8" stop-opacity="0"/></radialGradient></defs><rect width="800" height="500" fill="url(#d2asky)"/><circle cx="180" cy="300" r="150" fill="url(#d2aglow)"/><path d="M0,262 L96,150 L168,214 L268,96 L352,196 L438,132 L536,220 L640,158 L730,232 L800,196 L800,500 L0,500 Z" fill="#7d97a2"/><path d="M0,336 L104,282 L206,330 L300,238 L392,316 L486,262 L580,332 L676,280 L772,326 L800,308 L800,500 L0,500 Z" fill="#526c78"/><path d="M0,412 L112,386 L232,418 L352,376 L472,418 L592,382 L712,418 L800,398 L800,500 L0,500 Z" fill="#2f4550"/><rect x="0" y="424" width="800" height="76" fill="url(#d2alk)"/><path d="M120 448h180M360 462h150M540 444h120" stroke="#ffffff" stroke-opacity=".28" stroke-width="2" stroke-linecap="round"/><rect x="596" y="392" width="34" height="22" rx="3" fill="#3c2f2a"/><path d="M592,392 L613,378 L634,392 Z" fill="#8c4a3c"/><rect x="606" y="402" width="8" height="12" fill="#ffd9a0" opacity=".9"/></svg>
