<svg viewBox="0 0 800 500" preserveAspectRatio="xMidYMid slice" xmlns="http://www.w3.org/2000/svg" role="img"><defs><linearGradient id="d2ds" x1="0" y1="0" x2="0" y2="1"><stop offset="0" stop-color="#3d8a8f"/><stop offset="1" stop-color="#bfe6e2"/></linearGradient></defs><rect width="800" height="500" fill="url(#d2ds)"/><circle cx="612" cy="120" r="44" fill="#eafaf6" opacity=".8"/><path d="M0,314 L110,250 L220,300 L360,222 L470,290 L610,232 L740,286 L800,262 L800,500 L0,500 Z" fill="#5f9ea0"/><path d="M0,360 L110,300 L220,352 L330,270 L440,342 L560,292 L680,352 L800,322 L800,500 L0,500 Z" fill="#437b7f"/><path d="M0,432 L140,400 L280,436 L420,394 L560,436 L700,400 L800,420 L800,500 L0,500 Z" fill="#2c5659"/><ellipse cx="400" cy="470" rx="330" ry="26" fill="#ffffff" opacity=".18"/><ellipse cx="400" cy="468" rx="250" ry="16" fill="#eafaf6" opacity=".12"/></svg>
