<svg viewBox="0 0 800 500" preserveAspectRatio="xMidYMid slice" xmlns="http://www.w3.org/2000/svg" role="img"><defs><linearGradient id="d3bsky" x1="0" y1="0" x2="0" y2="1"><stop offset="0" stop-color="#4a90a4"/><stop offset="1" stop-color="#e2f1ec"/></linearGradient><linearGradient id="d3blk" x1="0" y1="0" x2="0" y2="1"><stop offset="0" stop-color="#63d0c4"/><stop offset="1" stop-color="#2b5a5c"/></linearGradient></defs><rect width="800" height="500" fill="url(#d3bsky)"/><circle cx="150" cy="104" r="40" fill="#f4fbf8" opacity=".55"/><path d="M0,282 L98,198 L186,258 L288,144 L378,236 L470,172 L570,250 L668,190 L760,248 L800,222 L800,500 L0,500 Z" fill="#87a8a6"/><path d="M0,344 L104,292 L206,340 L300,254 L392,330 L486,276 L580,340 L676,290 L772,334 L800,316 L800,500 L0,500 Z" fill="#5d8180"/><path d="M0,404 L112,380 L232,410 L352,372 L472,410 L592,378 L712,410 L800,392 L800,500 L0,500 Z" fill="#3a5a5b"/><rect x="0" y="416" width="800" height="84" fill="url(#d3blk)"/><path d="M100 442h190M340 458h170M560 438h140M240 474h230" stroke="#ffffff" stroke-opacity=".3" stroke-width="2" stroke-linecap="round"/></svg>
