<svg viewBox="0 0 800 500" preserveAspectRatio="xMidYMid slice" xmlns="http://www.w3.org/2000/svg" role="img" aria-label="Ilustración de montaña"><defs><linearGradient id="d4d" x1="0" y1="0" x2="0" y2="1"><stop offset="0" stop-color="#5a6478"/><stop offset="1" stop-color="#d5dbe2"/></linearGradient><radialGradient id="d4ds"><stop offset="0" stop-color="#ffdca6"/><stop offset=".5" stop-color="#ffdca6" stop-opacity=".6"/><stop offset="1" stop-color="#ffdca6" stop-opacity="0"/></radialGradient></defs><rect width="800" height="500" fill="url(#d4d)"/><circle cx="612" cy="120" r="110" fill="url(#d4ds)"/><circle cx="612" cy="120" r="30" fill="#ffdca6" opacity=".9"/><path d="M0,290 L130,210 L250,278 L380,180 L520,262 L650,200 L800,248 L800,500 L0,500 Z" fill="#7a8494"/><path d="M0,360 L110,300 L220,352 L330,270 L440,342 L560,292 L680,352 L800,322 L800,500 L0,500 Z" fill="#5f6a7a"/><path d="M0,432 L140,400 L280,436 L420,394 L560,436 L700,400 L800,420 L800,500 L0,500 Z" fill="#464f5e"/></svg>
