<svg viewBox="0 0 800 500" preserveAspectRatio="xMidYMid slice" xmlns="http://www.w3.org/2000/svg" role="img"><defs><linearGradient id="d7ds" x1="0" y1="0" x2="0" y2="1"><stop offset="0" stop-color="#33406b"/><stop offset="1" stop-color="#e2a191"/></linearGradient></defs><rect width="800" height="500" fill="url(#d7ds)"/><circle cx="612" cy="120" r="44" fill="#ffd9a8" opacity=".8"/><path d="M0,314 L110,250 L220,300 L360,222 L470,290 L610,232 L740,286 L800,262 L800,500 L0,500 Z" fill="#556495"/><path d="M0,360 L110,300 L220,352 L330,270 L440,342 L560,292 L680,352 L800,322 L800,500 L0,500 Z" fill="#3a4c7a"/><path d="M0,432 L140,400 L280,436 L420,394 L560,436 L700,400 L800,420 L800,500 L0,500 Z" fill="#243254"/></svg>
